<?xml version="1.0" ?><svg id="Layer_1" style="enable-background:new 0 0 30 30;" version="1.1" viewBox="0 0 30 30" xml:space="preserve" xmlns="http://www.w3.org/2000/svg" xmlns:xlink="http://www.w3.org/1999/xlink"><style type="text/css">
	.st0{fill:#F0C419;}
</style><g><path class="st0" d="M9.041,4.078l-0.5,1.7c0,0-0.667-0.552-2.458,0.541c0,0-0.333,1.384,1.958,1.801c0,0-2.292,9.667,3.083,12.5   c0,0-0.375,1.708,0.75,1.958l-0.708,3.542L8.97,25.912c0,0-0.941,0.542,0.711,0.917l0.541,0.292l-0.541,0.667   c0,0-0.239,1.333,1.082,0.167l0.945-0.917h1.417c0,0,1.792-0.458,0.208-1.042l-1.042-0.042l0.583-2.792l1.112-1.167h1.597   l0.708,1.333l0.292,0.583l-0.25,2.5l-0.208,0.458l-1.031-0.208l-0.547,0.328l0.047,0.484l0.594,0.406l0.25,0.266l-0.266,0.625   l0.047,0.531c0,0,0.594-0.016,0.625-0.078s0.813-1.109,0.813-1.109l1.359-0.547l1.141-0.328l-0.781-0.563l-0.594,0.094   l-0.359,0.031l0.125-2.469l0.078-0.703c0,0,1.906-1.031,1.25-2.156c0,0,3.719-0.484,4.453-3.203l-0.547-0.203l0.547-0.719   c0,0,1.313-3.469,0.5-4.406l-1.5,0.531l-1.047,0.25l-1.313-0.375l-4.609-1.594c0,0-0.969-6.016-2.453-7.203   c0,0,2.578-1.469,0.844-2.641c0,0-1.125-0.297-1.453,0.359c0,0,0-2.625-2.156-1.5L9.681,1.802c0,0-2.119-1.422-2.432-0.156   C7.249,1.646,6.598,3.557,9.041,4.078z"/><g><path d="M23.278,17.88c1.237-1.546,0.995-3.691,0.984-3.767c-0.015-1-0.177-1.487-0.544-1.628    c-0.252-0.101-0.497,0.026-0.604,0.143c-0.657,0.596-1.459,0.691-1.918,0.691c-0.228,0-0.369-0.026-0.369-0.021    c-2.011-0.871-4.284-1.569-5-1.781c-0.324-2.656-2.029-6.196-2.123-6.383l-0.213-0.337c0.542-0.274,0.912-0.633,1.1-1.069    c0.266-0.615,0.064-1.14,0.05-1.171c-0.186-0.58-0.5-0.939-0.933-1.067c-0.353-0.106-0.705-0.028-0.987,0.088    c-0.11-1.023-0.861-1.264-0.871-1.266c-0.647-0.272-1.203-0.274-1.656-0.01C9.801,0.535,9.582,0.922,9.462,1.24    c-0.79-0.48-1.438-0.603-1.933-0.364C6.823,1.22,6.774,2.14,6.772,2.194c0,1.284,0.987,1.931,1.78,2.183    c-0.146,0.306-0.281,0.67-0.369,0.926C6.446,5.417,5.79,6.477,5.761,6.523C5.7,6.626,5.695,6.751,5.747,6.857    c0.362,0.739,1.314,1.209,1.795,1.407c-0.228,1.556-0.316,5.159-0.319,5.313c-0.134,2.728,0.859,4.26,1.056,4.536    c0.546,1.319,1.991,2.457,2.504,2.831c-0.101,0.979,0.331,1.588,0.712,1.877l-0.56,2.832c-0.49-0.031-1.347-0.076-1.633-0.035    c-0.319,0.046-0.983,0.14-1,0.628c-0.02,0.577,1.008,0.813,1.086,0.83c0.178,0.037,0.304,0.069,0.389,0.09    c-0.024,0.03-0.047,0.059-0.065,0.081c-0.12,0.149-0.189,0.238-0.227,0.34c-0.087,0.236-0.351,0.956,0.162,1.208    c0.079,0.039,0.165,0.056,0.254,0.056c0.461,0,1.004-0.451,1.112-0.621c0.682-1.083,1.217-0.988,1.395-0.958    c1.307,0.228,1.689-0.19,1.805-0.468c0.041-0.096,0.136-0.32,0.013-0.563c-0.138-0.271-0.453-0.374-0.678-0.428    c-0.143-0.033-0.499-0.078-0.78-0.11l0.49-2.573c0.452-0.19,0.743-0.584,0.89-0.833l1.384,0.042    c0.068,0.884,0.494,1.362,0.759,1.577l-0.174,1.714l-0.121,0.893c-0.193-0.021-0.426-0.052-0.623-0.037    c-1.002,0.012-1.167,0.463-1.177,0.73c-0.015,0.444,0.441,0.935,0.78,0.962c0.025,0.002,0.046,0.005,0.065,0.008    c-0.028,0.049-0.06,0.1-0.082,0.136c-0.1,0.162-0.157,0.26-0.181,0.364c-0.056,0.246-0.225,0.994,0.316,1.178    c0.057,0.02,0.116,0.028,0.176,0.028c0.481,0,1.016-0.571,1.105-0.764c0.539-1.163,1.081-1.139,1.262-1.131    c1.322,0.065,1.649-0.405,1.729-0.695c0.028-0.101,0.094-0.335-0.06-0.561c-0.171-0.252-0.497-0.313-0.727-0.336    c-0.151-0.016-0.52-0.015-0.806-0.01l0.002-0.172c0,0,0,0,0,0L17.922,24c0.991-0.498,1.268-1.543,1.279-2.26    c3.294-0.369,4.132-2.309,4.301-2.884c0.22-0.442,0.113-0.699-0.015-0.837C23.429,17.956,23.357,17.911,23.278,17.88z     M22.845,18.626c-0.155,0.515-0.904,2.212-4.035,2.448c-0.095,0.007-0.183,0.053-0.244,0.127    c-0.061,0.073-0.088,0.169-0.077,0.264c0.008,0.062,0.165,1.514-1.027,1.976c-0.127,0.049-0.214,0.167-0.224,0.303l-0.162,2.434    c0,0.004,0.002,0.008,0.002,0.012c0,0.003-0.002,0.005-0.002,0.008l-0.007,0.554c-0.002,0.095,0.036,0.187,0.104,0.253    c0.068,0.066,0.154,0.104,0.256,0.101c0.337-0.009,0.928-0.017,1.077-0.002c0.08,0.009,0.135,0.021,0.173,0.03    c-0.052,0.047-0.291,0.196-1.011,0.167c-0.778-0.027-1.439,0.48-1.921,1.523c-0.046,0.073-0.204,0.218-0.334,0.304    c0.005-0.063,0.017-0.149,0.042-0.263c0.018-0.043,0.059-0.106,0.102-0.176c0.178-0.289,0.361-0.589,0.179-0.852    c-0.19-0.277-0.473-0.335-0.64-0.341c-0.07-0.035-0.197-0.188-0.214-0.218c0.001-0.001,0.091-0.087,0.501-0.092    c0.316-0.008,0.858,0.074,0.863,0.075c0.092,0.011,0.187-0.011,0.261-0.067c0.075-0.056,0.124-0.14,0.137-0.232l0.084-0.619    c0.015-0.033,0.029-0.068,0.033-0.107l0.249-2.453c0.014-0.141-0.063-0.278-0.188-0.346c-0.025-0.014-0.63-0.353-0.598-1.427    c0.003-0.093-0.031-0.183-0.095-0.251c-0.063-0.067-0.151-0.106-0.244-0.109l-1.934-0.059c-0.158-0.002-0.276,0.08-0.333,0.212    c-0.003,0.007-0.267,0.606-0.746,0.72c-0.134,0.032-0.237,0.14-0.263,0.275l-0.6,3.146c-0.019,0.096,0.004,0.195,0.063,0.274    s0.147,0.129,0.245,0.14c0.336,0.034,0.923,0.102,1.069,0.137c0.078,0.019,0.132,0.037,0.167,0.052    c-0.055,0.039-0.3,0.164-1.024,0.036c-0.782-0.135-1.49,0.291-2.101,1.263c-0.055,0.066-0.23,0.189-0.371,0.259    c0.013-0.063,0.036-0.146,0.076-0.255c0.023-0.041,0.073-0.099,0.124-0.162c0.212-0.264,0.433-0.536,0.286-0.822    c-0.126-0.246-0.453-0.356-1.076-0.486c-0.039-0.009-0.096-0.027-0.159-0.053c0.029-0.005,0.06-0.009,0.094-0.014    c0.226-0.037,1.22,0.021,1.792,0.061c0.176,0.018,0.334-0.107,0.369-0.281l0.666-3.372c0.031-0.156-0.053-0.316-0.198-0.386    c-0.075-0.035-0.724-0.379-0.527-1.491c0.024-0.136-0.035-0.273-0.149-0.351c-0.019-0.013-1.884-1.278-2.442-2.681    c-0.012-0.029-0.029-0.059-0.048-0.084c-0.011-0.015-1.074-1.431-0.941-4.124c0.001-0.042,0.103-4.226,0.356-5.497    c0.035-0.174-0.066-0.346-0.235-0.401C7.717,7.6,6.87,7.235,6.487,6.729c0.237-0.254,0.827-0.723,1.956-0.735    c0.15-0.002,0.283-0.1,0.329-0.243C8.948,5.204,9.22,4.526,9.353,4.383C9.442,4.288,9.471,4.15,9.427,4.026    C9.382,3.903,9.273,3.815,9.143,3.797c-0.068-0.009-1.67-0.237-1.671-1.586c0-0.005,0.039-0.55,0.365-0.706    c0.186-0.09,0.644-0.131,1.634,0.581c0.101,0.073,0.231,0.087,0.345,0.036c0.113-0.05,0.192-0.156,0.207-0.279    c0-0.007,0.092-0.681,0.526-0.935c0.252-0.147,0.601-0.131,1.059,0.061c0.055,0.02,0.535,0.22,0.407,1.179    c-0.019,0.142,0.051,0.281,0.176,0.351c0.124,0.07,0.28,0.057,0.392-0.033c0.146-0.118,0.597-0.402,0.93-0.303    c0.197,0.059,0.353,0.264,0.473,0.636c0.001,0.003,0.114,0.307-0.036,0.653c-0.153,0.354-0.521,0.644-1.095,0.863    c-0.098,0.038-0.174,0.117-0.208,0.216c-0.033,0.1-0.02,0.209,0.036,0.298l0.411,0.646c0.018,0.038,1.829,3.794,2.062,6.345    c0.013,0.144,0.114,0.266,0.253,0.305c0.028,0.008,2.772,0.791,5.209,1.838c0.065,0.013,1.593,0.317,2.854-0.721    c0.038,0.139,0.084,0.409,0.093,0.917c0.003,0.027,0.296,2.687-1.514,3.91c-0.148,0.101-0.197,0.298-0.112,0.456    c0.085,0.157,0.276,0.229,0.442,0.157c0.162-0.066,0.357-0.121,0.495-0.144C22.867,18.56,22.851,18.605,22.845,18.626z"/><path d="M10.221,5.237c-0.298,0-0.541,0.243-0.541,0.541c0,0.298,0.243,0.541,0.541,0.541c0.298,0,0.541-0.243,0.541-0.541    C10.762,5.48,10.519,5.237,10.221,5.237z M10.062,5.778c0-0.088,0.071-0.16,0.159-0.16s0.16,0.072,0.16,0.16    C10.381,5.954,10.062,5.954,10.062,5.778z"/></g></g></svg>