<?xml version="1.0" encoding="iso-8859-1"?>
<!-- Generator: Adobe Illustrator 19.0.0, SVG Export Plug-In . SVG Version: 6.00 Build 0)  -->
<svg version="1.1" id="Capa_1" xmlns="http://www.w3.org/2000/svg" xmlns:xlink="http://www.w3.org/1999/xlink" x="0px" y="0px"
	 viewBox="0 0 505.603 505.603" style="enable-background:new 0 0 505.603 505.603;" xml:space="preserve">
<g transform="matrix(1.25 0 0 -1.25 0 45)">
	<g>
		<g>
			<g>
				<path style="fill:#3E721D;" d="M175.903-37.599c5.518,23.097,4.369,35.715-6.292,41.836c-10.661,6.11,3.823,30.322,22.494,9.011
					s16.247-41.165,7.521-55.205C190.91-56.008,173.07-49.466,175.903-37.599"/>
				<path style="fill:#3E721D;" d="M170.442-71.277c-10.422-21.356-19.331-30.356-31.448-28.297
					c-12.106,2.048-16.316-25.839,11.639-21.254c27.955,4.574,38.707,21.447,40.903,37.842
					C193.732-66.6,175.801-60.309,170.442-71.277"/>
				<path style="fill:#3E721D;" d="M299.42-142.456c-23.575,15.667-61.235-16.27-64.842-25.941
					c-3.618-9.671,19.57-39.378,13.028-56.206c-6.565-16.794,12.993-20.116,21.845-5.587c8.863,14.541,3.459,41.097,1.786,47.434
					c-1.695,6.337,24.906,13.87,41.756,0.421C329.867-195.772,309.33-149.055,299.42-142.456"/>
				<path style="fill:#3E721D;" d="M311.572-133.149c-17.59,22.175,11.093,62.373,20.412,66.788
					c9.341,4.403,29.264-4.585,45.477,3.345c16.202,7.93,19.854-9.717,7.396-21.322c-13.961-12.993-25.498-15.178-35.487-17.351
					c-6.406-1.388-0.364-23.131-0.091-45.181C349.528-167.328,318.967-142.479,311.572-133.149"/>
			</g>
			<path id="SVGCleanerId_0" style="fill:#3E721D;" d="M172.023,4.192c0-4.551-3.686-8.238-8.238-8.238
				c-4.54,0-8.226,3.686-8.226,8.238c0,4.54,3.686,8.238,8.226,8.238C168.337,12.43,172.023,8.732,172.023,4.192"/>
			<g>
				<path style="fill:#3E721D;" d="M137.901-97.036c0-4.54-3.686-8.238-8.238-8.238c-4.54,0-8.238,3.698-8.238,8.238
					s3.698,8.238,8.238,8.238C134.215-88.799,137.901-92.496,137.901-97.036"/>
				<path style="fill:#3E721D;" d="M134.488-116.117c0-4.551-3.686-8.238-8.238-8.238c-4.551,0-8.238,3.686-8.238,8.238
					c0,4.54,3.686,8.238,8.238,8.238C130.802-107.879,134.488-111.577,134.488-116.117"/>
				<path style="fill:#3E721D;" d="M150.974-124.354c0-4.551-3.686-8.238-8.238-8.238c-4.54,0-8.226,3.686-8.226,8.238
					s3.686,8.238,8.226,8.238C147.288-116.117,150.974-119.803,150.974-124.354"/>
				<path style="fill:#3E721D;" d="M248.493-225.025c1.456-4.301-0.831-9-5.143-10.468c-4.289-1.468-8.977,0.853-10.445,5.154
					c-1.468,4.301,0.819,8.988,5.12,10.456C242.338-218.414,247.026-220.724,248.493-225.025"/>
				<path style="fill:#3E721D;" d="M257.323-239.452c1.456-4.301-0.831-8.988-5.143-10.456c-4.289-1.456-8.977,0.842-10.445,5.143
					c-1.468,4.289,0.831,8.988,5.131,10.445C251.178-232.841,255.855-235.151,257.323-239.452"/>
				<path style="fill:#3E721D;" d="M275.834-236.721c1.479-4.289-0.831-8.988-5.143-10.456c-4.278-1.468-8.966,0.842-10.433,5.131
					c-1.468,4.301,0.831,9,5.12,10.456C269.69-230.111,274.378-232.42,275.834-236.721"/>
				<path style="fill:#3E721D;" d="M387.416-57.498c0-4.54-3.698-8.238-8.249-8.238c-4.54,0-8.226,3.698-8.226,8.238
					c0,4.551,3.686,8.249,8.226,8.249C383.718-49.249,387.416-52.947,387.416-57.498"/>
				<path style="fill:#3E721D;" d="M404.483-65.747c0-4.54-3.686-8.238-8.249-8.238c-4.528,0-8.215,3.698-8.215,8.238
					s3.686,8.238,8.215,8.238C400.796-57.51,404.483-61.207,404.483-65.747"/>
				<path style="fill:#3E721D;" d="M400.546-85.271c0-4.54-3.686-8.238-8.249-8.238c-4.54,0-8.226,3.698-8.226,8.238
					s3.686,8.238,8.226,8.238C396.86-77.034,400.546-80.732,400.546-85.271"/>
				<path style="fill:#3E721D;" d="M174.219,21.816c0-4.54-3.686-8.238-8.238-8.238c-4.551,0-8.238,3.698-8.238,8.238
					c0,4.551,3.686,8.238,8.238,8.238C170.533,30.054,174.219,26.367,174.219,21.816"/>
			</g>
			<g transform="translate(1.764 2.02)">
				<path id="SVGCleanerId_0_1_" style="fill:#3E721D;" d="M192.094,27.175c0-4.551-3.686-8.238-8.238-8.238
					c-4.54,0-8.226,3.686-8.226,8.238c0,4.54,3.686,8.238,8.226,8.238C188.407,35.413,192.094,31.715,192.094,27.175"/>
			</g>
			<path style="fill:#3E721D;" d="M0.094-24.082c3.004,11.981,52.975,53.737,98.315,45.898
				c23.029-3.994,33.473-38.161,58.049-39.014c128.455-4.426,253.406-126.726,214.437-243.382
				c-17.124-51.268-63.92-100.09-175.912-56.9c-22.244,8.579-45.17,22.596-89.02,13.961c-32.449-6.406-35.829-35.942-31.892-51.166
				c3.095-11.924-1.832-18-7.964-8.636c-13.949,21.254-14.985,49.471,7.305,67.766c44.51,36.534,105.222,14.609,149.481,0.671
				c73.739-23.256,112.833,41.54,72.192,117.362C255.229-103.112,183.447-82.814,135.74-77.205
				c-13.289,1.559-41.404-23.313-61.065-19.831C33.487-89.72-2.068-32.774,0.094-24.082"/>
			<path style="fill:#77B255;" d="M0.094-24.082c3.004,11.981,52.975,53.737,98.315,45.898
				c23.029-3.994,33.473-38.161,58.049-39.014c128.455-4.426,253.406-126.726,214.437-243.382
				c-17.124-51.268-63.92-100.09-175.912-56.9c-22.244,8.579-45.17,22.596-89.02,13.961c-32.449-6.406-35.829-35.942-31.892-51.166
				c1.525-5.871,1.115-10.308-0.444-12.208c-10.479,14.586-15.497,49.38,7.532,66.731c40.266,30.345,97.485,1.49,151.336-11.856
				c116.634-28.911,138.615,90.965,89.975,169.244C263.455-47.793,77.372-25.197,0.094-24.082"/>
			<path id="SVGCleanerId_1" style="fill:#292F33;" d="M88.749,6.092c0-6.281-5.097-11.378-11.378-11.378S65.994-0.188,65.994,6.092
				S71.091,17.47,77.372,17.47S88.749,12.373,88.749,6.092"/>
			<g transform="translate(-1 -7)">
				<path id="SVGCleanerId_1_1_" style="fill:#292F33;" d="M77.372-73.552c0-6.281-5.097-11.378-11.378-11.378
					s-11.378,5.097-11.378,11.378s5.097,11.378,11.378,11.378S77.372-67.272,77.372-73.552"/>
			</g>
		</g>
	</g>
</g>
<g>
</g>
<g>
</g>
<g>
</g>
<g>
</g>
<g>
</g>
<g>
</g>
<g>
</g>
<g>
</g>
<g>
</g>
<g>
</g>
<g>
</g>
<g>
</g>
<g>
</g>
<g>
</g>
<g>
</g>
</svg>
