<?xml version="1.0" ?><svg id="turtle" style="enable-background:new 0 0 300 300;" version="1.1" viewBox="0 0 300 300" xml:space="preserve" xmlns="http://www.w3.org/2000/svg" xmlns:xlink="http://www.w3.org/1999/xlink"><g><ellipse cx="154" cy="70" rx="28" ry="36" style="fill-rule:evenodd;clip-rule:evenodd;fill:#85D839;stroke:#000000;stroke-width:8;stroke-linecap:round;stroke-linejoin:round;stroke-miterlimit:10;"/><path d="   M107.341,210.491c0,0-12.999,39.021,1.563,54.423C123.466,280.316,134,278.473,134,241.061   C134,203.649,107.341,210.491,107.341,210.491z" style="fill-rule:evenodd;clip-rule:evenodd;fill:#85D839;stroke:#000000;stroke-width:8;stroke-linecap:round;stroke-linejoin:round;stroke-miterlimit:10;"/><path d="   M200.659,210.491c0,0,12.999,39.021-1.563,54.423C184.534,280.316,174,278.473,174,241.061   C174,203.649,200.659,210.491,200.659,210.491z" style="fill-rule:evenodd;clip-rule:evenodd;fill:#85D839;stroke:#000000;stroke-width:8;stroke-linecap:round;stroke-linejoin:round;stroke-miterlimit:10;"/><path d="   M110,111.357c0,0-27.355-23.875-43.21-21.139C50.936,92.955,50,115.409,50,122.716c0,7.308,7.34,54.464,15.538,51.113   c8.198-3.35,16.224-34.917,16.224-34.917s7.837,9.282,19.974,10.24" style="fill-rule:evenodd;clip-rule:evenodd;fill:#85D839;stroke:#000000;stroke-width:8;stroke-linecap:round;stroke-linejoin:round;stroke-miterlimit:10;"/><path d="   M198,111.357c0,0,27.355-23.875,43.21-21.139c15.854,2.736,16.79,25.19,16.79,32.498c0,7.308-7.341,54.464-15.538,51.113   c-8.202-3.35-16.224-34.917-16.224-34.917s-7.837,9.282-19.974,10.24" style="fill-rule:evenodd;clip-rule:evenodd;fill:#85D839;stroke:#000000;stroke-width:8;stroke-linecap:round;stroke-linejoin:round;stroke-miterlimit:10;"/><path d="   M154,238c35.348,0,64-34.026,64-76s-5.276-68-64-68s-64,26.026-64,68S118.652,238,154,238z" style="fill-rule:evenodd;clip-rule:evenodd;fill:#8C6B3B;stroke:#000000;stroke-width:8;stroke-linecap:round;stroke-linejoin:round;stroke-miterlimit:10;"/><polygon points="   154,114 182,130 182,162 154,178 126,162 126,130  " style="fill-rule:evenodd;clip-rule:evenodd;fill:#26BBEC;stroke:#000000;stroke-width:8;stroke-linecap:round;stroke-linejoin:round;stroke-miterlimit:10;"/><polygon points="   154,114 182,130 182,162 154,178 126,162 126,130  " style="fill:#997843;stroke:#000000;stroke-width:8;stroke-linecap:round;stroke-linejoin:round;stroke-miterlimit:10;"/><path d="   M146,58c-4.418,0-8,3.582-8,8" style="fill:#26BBEC;stroke:#000000;stroke-width:8;stroke-linecap:round;stroke-linejoin:round;stroke-miterlimit:10;"/><path d="   M162,58c4.418,0,8,3.582,8,8" style="fill:#26BBEC;stroke:#000000;stroke-width:8;stroke-linecap:round;stroke-linejoin:round;stroke-miterlimit:10;"/><line style="fill:#26BBEC;stroke:#000000;stroke-width:8;stroke-linecap:round;stroke-linejoin:round;stroke-miterlimit:10;" x1="154" x2="154" y1="178" y2="234"/><line style="fill:#26BBEC;stroke:#000000;stroke-width:8;stroke-linecap:round;stroke-linejoin:round;stroke-miterlimit:10;" x1="154" x2="154" y1="114" y2="94"/><line style="fill:#26BBEC;stroke:#000000;stroke-width:8;stroke-linecap:round;stroke-linejoin:round;stroke-miterlimit:10;" x1="126" x2="98" y1="130" y2="118"/><line style="fill:#26BBEC;stroke:#000000;stroke-width:8;stroke-linecap:round;stroke-linejoin:round;stroke-miterlimit:10;" x1="126" x2="94" y1="162" y2="182"/><line style="fill:#26BBEC;stroke:#000000;stroke-width:8;stroke-linecap:round;stroke-linejoin:round;stroke-miterlimit:10;" x1="182" x2="210" y1="130" y2="118"/><line style="fill:#26BBEC;stroke:#000000;stroke-width:8;stroke-linecap:round;stroke-linejoin:round;stroke-miterlimit:10;" x1="182" x2="214" y1="162" y2="182"/></g><g/><g/><g/><g/><g/><g/><g/><g/><g/><g/><g/><g/><g/><g/><g/></svg>