<?xml version="1.0" ?><svg id="pig" style="enable-background:new 0 0 300 300;" version="1.1" viewBox="0 0 300 300" xml:space="preserve" xmlns="http://www.w3.org/2000/svg" xmlns:xlink="http://www.w3.org/1999/xlink"><g><path d="   M207.246,70.052c0,0,15.044-18.536,37.419-13.03c0,0,9.696,28.612-23.163,47.05C188.643,122.51,207.246,70.052,207.246,70.052z" style="fill-rule:evenodd;clip-rule:evenodd;fill:#F87EA1;stroke:#000000;stroke-width:8;stroke-linecap:round;stroke-linejoin:round;stroke-miterlimit:10;"/><path d="   M104.754,70.052c0,0-15.044-18.536-37.419-13.03c0,0-9.696,28.612,23.163,47.05C123.357,122.51,104.754,70.052,104.754,70.052z" style="fill-rule:evenodd;clip-rule:evenodd;fill:#F87EA1;stroke:#000000;stroke-width:8;stroke-linecap:round;stroke-linejoin:round;stroke-miterlimit:10;"/><path d="   M222,87.536c0,0,1.877-23.758,22.941-31.536c0,0,23.615,18.479,7.334,52" style="fill-rule:evenodd;clip-rule:evenodd;fill:#F87EA1;stroke:#000000;stroke-width:8;stroke-linecap:round;stroke-linejoin:round;stroke-miterlimit:10;"/><path d="   M154,252c64.065,0,116-51.399,116-100s-51.935-88-116-88S38,103.399,38,152S89.935,252,154,252z" style="fill-rule:evenodd;clip-rule:evenodd;fill:#F87EA1;stroke:#000000;stroke-width:8;stroke-linecap:round;stroke-linejoin:round;stroke-miterlimit:10;"/><path d="   M126,144c-3.625-4.854-9.442-8-16-8c-6.558,0-12.375,3.146-16,8" style="fill:none;stroke:#000000;stroke-width:8;stroke-linecap:round;stroke-linejoin:round;stroke-miterlimit:10;"/><circle cx="154" cy="220" r="12" style="fill-rule:evenodd;clip-rule:evenodd;fill:#26BBEC;stroke:#000000;stroke-width:8;stroke-linecap:round;stroke-linejoin:round;stroke-miterlimit:10;"/><path d="   M214,144c-3.625-4.854-9.442-8-16-8c-6.558,0-12.375,3.146-16,8" style="fill:none;stroke:#000000;stroke-width:8;stroke-linecap:round;stroke-linejoin:round;stroke-miterlimit:10;"/><ellipse cx="154" cy="196" rx="48" ry="28" style="fill-rule:evenodd;clip-rule:evenodd;fill:#ED5481;stroke:#000000;stroke-width:8;stroke-linecap:round;stroke-linejoin:round;stroke-miterlimit:10;"/><ellipse cx="130" cy="196" rx="8" ry="12" style="fill-rule:evenodd;clip-rule:evenodd;fill:#777777;stroke:#000000;stroke-width:8;stroke-linecap:round;stroke-linejoin:round;stroke-miterlimit:10;"/><ellipse cx="178" cy="196" rx="8" ry="12" style="fill-rule:evenodd;clip-rule:evenodd;fill:#777777;stroke:#000000;stroke-width:8;stroke-linecap:round;stroke-linejoin:round;stroke-miterlimit:10;"/><path d="   M90,87.536c0,0-1.877-23.758-22.941-31.536c0,0-23.615,18.479-7.334,52" style="fill-rule:evenodd;clip-rule:evenodd;fill:#F87EA1;stroke:#000000;stroke-width:8;stroke-linecap:round;stroke-linejoin:round;stroke-miterlimit:10;"/></g><g/><g/><g/><g/><g/><g/><g/><g/><g/><g/><g/><g/><g/><g/><g/></svg>