<?xml version="1.0" encoding="UTF-8" standalone="no"?>
<!-- Created with Inkscape (http://www.inkscape.org/) -->

<svg
   xmlns:dc="http://purl.org/dc/elements/1.1/"
   xmlns:cc="http://creativecommons.org/ns#"
   xmlns:rdf="http://www.w3.org/1999/02/22-rdf-syntax-ns#"
   xmlns:svg="http://www.w3.org/2000/svg"
   xmlns="http://www.w3.org/2000/svg"
   xmlns:sodipodi="http://sodipodi.sourceforge.net/DTD/sodipodi-0.dtd"
   xmlns:inkscape="http://www.inkscape.org/namespaces/inkscape"
   width="192.68495mm"
   height="127.76725mm"
   viewBox="0 0 192.68495 127.76725"
   version="1.1"
   id="svg8"
   inkscape:version="0.92.3 (d244b95, 2018-08-02)"
   sodipodi:docname="redigi_logo2.svg">
  <defs
     id="defs2" />
  <sodipodi:namedview
     id="base"
     pagecolor="#ffffff"
     bordercolor="#666666"
     borderopacity="1.0"
     inkscape:pageopacity="0.0"
     inkscape:pageshadow="2"
     inkscape:zoom="0.64"
     inkscape:cx="395.03431"
     inkscape:cy="208.39306"
     inkscape:document-units="mm"
     inkscape:current-layer="layer2"
     showgrid="false"
     inkscape:window-width="1299"
     inkscape:window-height="713"
     inkscape:window-x="67"
     inkscape:window-y="27"
     inkscape:window-maximized="1"
     fit-margin-bottom="-0.3"
     fit-margin-top="0"
     fit-margin-left="0"
     fit-margin-right="0" />
  <metadata
     id="metadata5">
    <rdf:RDF>
      <cc:Work
         rdf:about="">
        <dc:format>image/svg+xml</dc:format>
        <dc:type
           rdf:resource="http://purl.org/dc/dcmitype/StillImage" />
        <dc:title></dc:title>
      </cc:Work>
    </rdf:RDF>
  </metadata>
  <g
     inkscape:label="rectangulo"
     inkscape:groupmode="layer"
     id="layer1"
     transform="translate(-18.762251,-56.89383)" />
  <g
     inkscape:groupmode="layer"
     id="layer2"
     inkscape:label="triangulo"
     transform="translate(-18.762251,-56.89383)">
    <path
       style="fill:#ff0000"
       d="m 38.122975,56.89383 c -18.336063,8.300926 -19.360724,8.300926 -19.360724,8.300926 l 19.372062,8.254181 z"
       id="path3715"
       inkscape:connector-curvature="0"
       sodipodi:nodetypes="cccc" />
    <path
       style="fill:#ff6600"
       d="M 18.773589,81.749863 C 37.109652,73.448937 38.134313,73.448937 38.134313,73.448937 L 18.762251,65.194756 Z"
       id="path3715-3"
       inkscape:connector-curvature="0"
       sodipodi:nodetypes="cccc" />
    <path
       style="fill:#ff0000;stroke-width:1"
       d="M 38.134313,72.919769 C 19.79825,81.220696 18.773589,81.220696 18.773589,81.220696 l 19.372062,8.25418 z"
       id="path3715-6"
       inkscape:connector-curvature="0"
       sodipodi:nodetypes="cccc" />
    <path
       style="fill:#ff6600;stroke-width:1"
       d="M 18.784927,97.775803 C 37.12099,89.474877 38.145651,89.474877 38.145651,89.474877 L 18.773589,81.220696 Z"
       id="path3715-3-7"
       inkscape:connector-curvature="0"
       sodipodi:nodetypes="cccc" />
    <path
       style="fill:#ff0000;stroke-width:1"
       d="m 38.145651,88.945709 c -18.336063,8.300927 -19.360724,8.300927 -19.360724,8.300927 l 19.372062,8.254184 z"
       id="path3715-6-5"
       inkscape:connector-curvature="0"
       sodipodi:nodetypes="cccc" />
    <path
       style="fill:#ff6600;stroke-width:1"
       d="m 18.796265,113.80174 c 18.336063,-8.30092 19.360724,-8.30092 19.360724,-8.30092 L 18.784927,97.246634 Z"
       id="path3715-3-3"
       inkscape:connector-curvature="0"
       sodipodi:nodetypes="cccc" />
    <path
       style="fill:#ff0000;stroke-width:1"
       d="m 38.156989,104.97165 c -18.336063,8.30092 -19.360724,8.30092 -19.360724,8.30092 l 19.372062,8.25418 z"
       id="path3715-6-56"
       inkscape:connector-curvature="0"
       sodipodi:nodetypes="cccc" />
    <path
       style="fill:#ff6600;stroke-width:1"
       d="m 18.807603,129.82768 c 18.336063,-8.30092 19.360724,-8.30092 19.360724,-8.30092 l -19.372062,-8.25419 z"
       id="path3715-3-2"
       inkscape:connector-curvature="0"
       sodipodi:nodetypes="cccc" />
    <path
       style="fill:#ff0000;stroke-width:1"
       d="m 38.168327,120.99759 c -18.336063,8.30092 -19.360724,8.30092 -19.360724,8.30092 l 19.372062,8.25418 z"
       id="path3715-6-9"
       inkscape:connector-curvature="0"
       sodipodi:nodetypes="cccc" />
    <path
       style="fill:#000080;stroke-width:1"
       d="M 38.145651,89.474876 C 56.481714,81.17395 57.506375,81.17395 57.506375,81.17395 L 38.134313,72.919769 Z"
       id="path3715-3-2-1"
       inkscape:connector-curvature="0"
       sodipodi:nodetypes="cccc" />
    <path
       style="fill:#ff0000;stroke-width:1"
       d="M 57.495037,64.618843 C 39.158974,72.919771 38.134313,72.919771 38.134313,72.919771 L 57.506375,81.17395 Z"
       id="path3715-6-5-2"
       inkscape:connector-curvature="0"
       sodipodi:nodetypes="cccc" />
    <path
       style="fill:#ff6600;stroke-width:1"
       d="M 57.506375,81.17395 C 75.842438,72.873025 76.867099,72.873025 76.867099,72.873025 L 57.495037,64.618843 Z"
       id="path3715-3-2-1-7"
       inkscape:connector-curvature="0"
       sodipodi:nodetypes="cccc" />
    <path
       style="fill:#ff0000;stroke-width:1"
       d="M 76.337932,72.343855 C 58.001869,80.644783 56.977208,80.644783 56.977208,80.644783 L 76.34927,88.898962 Z"
       id="path3715-6-5-2-0"
       inkscape:connector-curvature="0"
       sodipodi:nodetypes="cccc" />
    <path
       style="fill:#ff6600;stroke-width:1"
       d="M 76.34927,89.428129 C 94.685333,81.127203 95.709994,81.127203 95.709994,81.127203 L 76.337932,72.873022 Z"
       id="path3715-3-2-9"
       inkscape:connector-curvature="0"
       sodipodi:nodetypes="cccc" />
    <path
       style="fill:#ff0000;stroke-width:1"
       d="M 95.709994,80.598035 C 77.373931,88.898962 76.34927,88.898962 76.34927,88.898962 l 19.372062,8.254177 z"
       id="path3715-6-9-3"
       inkscape:connector-curvature="0"
       sodipodi:nodetypes="cccc" />
    <path
       style="fill:#000080;stroke-width:1"
       d="M 76.360608,105.45407 C 94.696671,97.153143 95.721332,97.153143 95.721332,97.153143 L 76.34927,88.898962 Z"
       id="path3715-3-2-6"
       inkscape:connector-curvature="0"
       sodipodi:nodetypes="cccc" />
    <path
       style="fill:#ff0000;stroke-width:1"
       d="M 95.721332,96.623975 C 77.385269,104.9249 76.360608,104.9249 76.360608,104.9249 l 19.372062,8.25418 z"
       id="path3715-6-9-0"
       inkscape:connector-curvature="0"
       sodipodi:nodetypes="cccc" />
    <path
       style="fill:#ff6600;stroke-width:1"
       d="m 76.371946,121.48001 c 18.336063,-8.30093 19.360724,-8.30093 19.360724,-8.30093 L 76.360608,104.9249 Z"
       id="path3715-3-2-62"
       inkscape:connector-curvature="0"
       sodipodi:nodetypes="cccc" />
    <path
       style="fill:#ff6600;stroke-width:1"
       d="m 38.168327,121.52676 c 18.336063,-8.30093 19.360724,-8.30093 19.360724,-8.30093 l -19.372062,-8.25418 z"
       id="path3715-3-2-61"
       inkscape:connector-curvature="0"
       sodipodi:nodetypes="cccc" />
    <path
       style="fill:#ff0000;stroke-width:1"
       d="m 76.360608,104.9249 c -18.336063,8.30093 -19.360724,8.30093 -19.360724,8.30093 l 19.372062,8.25418 z"
       id="path3715-6-9-8"
       inkscape:connector-curvature="0"
       sodipodi:nodetypes="cccc" />
    <path
       style="fill:#ff0000;stroke-width:1"
       d="m 56.999884,113.22583 c -18.336063,8.30093 -19.360724,8.30093 -19.360724,8.30093 l 19.372062,8.25418 z"
       id="path3715-6-56-7"
       inkscape:connector-curvature="0"
       sodipodi:nodetypes="cccc" />
    <path
       style="fill:#ff6600;stroke-width:1"
       d="m 57.011222,129.78094 c 18.336064,-8.30093 19.360723,-8.30093 19.360723,-8.30093 l -19.372061,-8.25418 z"
       id="path3715-3-2-61-9"
       inkscape:connector-curvature="0"
       sodipodi:nodetypes="cccc" />
    <path
       style="fill:#000080;stroke-width:1"
       d="m 18.818941,145.85362 c 18.336063,-8.30093 19.360724,-8.30093 19.360724,-8.30093 l -19.372062,-8.25418 z"
       id="path3715-3-2-2"
       inkscape:connector-curvature="0"
       sodipodi:nodetypes="cccc" />
    <path
       style="fill:#ff0000;stroke-width:1"
       d="m 38.179665,137.02352 c -18.336063,8.30093 -19.360724,8.30093 -19.360724,8.30093 l 19.372062,8.25419 z"
       id="path3715-6-9-02"
       inkscape:connector-curvature="0"
       sodipodi:nodetypes="cccc" />
    <path
       style="fill:#ff0000;stroke-width:1"
       d="m 76.371946,120.95084 c -18.336063,8.30092 -19.360724,8.30092 -19.360724,8.30092 l 19.372062,8.25418 z"
       id="path3715-6-56-7-3"
       inkscape:connector-curvature="0"
       sodipodi:nodetypes="cccc" />
    <path
       style="fill:#ff6600;stroke-width:1"
       d="m 76.383284,137.50595 c 18.336064,-8.30093 19.360723,-8.30093 19.360723,-8.30093 l -19.372061,-8.25418 z"
       id="path3715-3-2-61-9-7"
       inkscape:connector-curvature="0"
       sodipodi:nodetypes="cccc" />
    <path
       style="fill:#ff0000;stroke-width:1"
       d="m 95.744007,128.67585 c -18.336063,8.30093 -19.360724,8.30093 -19.360724,8.30093 l 19.372062,8.25417 z"
       id="path3715-6-9-5"
       inkscape:connector-curvature="0"
       sodipodi:nodetypes="cccc" />
    <path
       style="fill:#ff6600;stroke-width:1"
       d="m 76.394621,153.53188 c 18.336063,-8.30093 19.360724,-8.30093 19.360724,-8.30093 l -19.372062,-8.25417 z"
       id="path3715-3-2-2-9"
       inkscape:connector-curvature="0"
       sodipodi:nodetypes="cccc" />
    <path
       style="fill:#ff6600;stroke-width:1"
       d="m 172.65773,97.059633 c 18.33607,-8.30093 19.36073,-8.30093 19.36073,-8.30093 L 172.6464,80.504525 Z"
       id="path3715-3-22"
       inkscape:connector-curvature="0"
       sodipodi:nodetypes="cccc" />
    <path
       style="fill:#ff0000;stroke-width:1"
       d="m 192.01846,88.229543 c -18.33607,8.30092 -19.36073,8.30092 -19.36073,8.30092 l 19.37207,8.254177 z"
       id="path3715-6-8"
       inkscape:connector-curvature="0"
       sodipodi:nodetypes="cccc" />
    <path
       style="fill:#000080;stroke-width:1"
       d="m 172.66907,113.08557 c 18.33606,-8.30093 19.36073,-8.30093 19.36073,-8.30093 l -19.37207,-8.254177 z"
       id="path3715-3-7-9"
       inkscape:connector-curvature="0"
       sodipodi:nodetypes="cccc" />
    <path
       style="fill:#ff0000;stroke-width:1"
       d="m 192.0298,104.25547 c -18.33607,8.30093 -19.36073,8.30093 -19.36073,8.30093 l 19.37206,8.25418 z"
       id="path3715-6-5-7"
       inkscape:connector-curvature="0"
       sodipodi:nodetypes="cccc" />
    <path
       style="fill:#ff6600;stroke-width:1"
       d="m 172.68041,129.11151 c 18.33606,-8.30093 19.36072,-8.30093 19.36072,-8.30093 l -19.37206,-8.25418 z"
       id="path3715-3-3-3"
       inkscape:connector-curvature="0"
       sodipodi:nodetypes="cccc" />
    <path
       style="fill:#ff0000;stroke-width:1"
       d="m 192.04113,120.28141 c -18.33606,8.30093 -19.36072,8.30093 -19.36072,8.30093 l 19.37206,8.25418 z"
       id="path3715-6-56-6"
       inkscape:connector-curvature="0"
       sodipodi:nodetypes="cccc" />
    <path
       style="fill:#ff6600;stroke-width:1"
       d="m 134.48814,144.65502 c 18.33606,-8.30091 19.36072,-8.30091 19.36072,-8.30091 l -19.37206,-8.25418 z"
       id="path3715-3-2-1-9"
       inkscape:connector-curvature="0"
       sodipodi:nodetypes="cccc" />
    <path
       style="fill:#ff0000;stroke-width:1"
       d="m 153.83752,119.79899 c -18.33606,8.30094 -19.36072,8.30094 -19.36072,8.30094 l 19.37206,8.25418 z"
       id="path3715-6-5-2-3"
       inkscape:connector-curvature="0"
       sodipodi:nodetypes="cccc" />
    <path
       style="fill:#ff6600;stroke-width:1"
       d="m 153.84886,136.35411 c 18.33606,-8.30093 19.36072,-8.30093 19.36072,-8.30093 l -19.37206,-8.25419 z"
       id="path3715-3-2-1-7-1"
       inkscape:connector-curvature="0"
       sodipodi:nodetypes="cccc" />
    <path
       style="fill:#ff0000;stroke-width:1"
       d="m 172.68042,127.52401 c -18.33607,8.30093 -19.36073,8.30093 -19.36073,8.30093 l 19.37207,8.25418 z"
       id="path3715-6-5-2-0-9"
       inkscape:connector-curvature="0"
       sodipodi:nodetypes="cccc" />
    <path
       style="fill:#ff6600;stroke-width:1"
       d="m 172.69176,144.60827 c 18.33605,-8.30091 19.36072,-8.30091 19.36072,-8.30091 l -19.37206,-8.25418 z"
       id="path3715-3-2-9-4"
       inkscape:connector-curvature="0"
       sodipodi:nodetypes="cccc" />
    <path
       style="fill:#ff0000;stroke-width:1"
       d="m 192.05248,135.77819 c -18.33606,8.30093 -19.36072,8.30093 -19.36072,8.30093 l 19.37205,8.25416 z"
       id="path3715-6-9-3-7"
       inkscape:connector-curvature="0"
       sodipodi:nodetypes="cccc" />
    <path
       style="fill:#ff6600;stroke-width:1"
       d="m 172.70309,160.63421 c 18.33606,-8.30092 19.36072,-8.30092 19.36072,-8.30092 l -19.37205,-8.25417 z"
       id="path3715-3-2-6-8"
       inkscape:connector-curvature="0"
       sodipodi:nodetypes="cccc" />
    <path
       style="fill:#ff0000;stroke-width:1"
       d="m 192.06381,151.80412 c -18.33606,8.30093 -19.36072,8.30093 -19.36072,8.30093 l 19.37206,8.25417 z"
       id="path3715-6-9-0-4"
       inkscape:connector-curvature="0"
       sodipodi:nodetypes="cccc" />
    <path
       style="fill:#ff6600;stroke-width:1"
       d="m 172.71443,176.66015 c 18.33606,-8.30093 19.36072,-8.30093 19.36072,-8.30093 l -19.37206,-8.25417 z"
       id="path3715-3-2-62-5"
       inkscape:connector-curvature="0"
       sodipodi:nodetypes="cccc" />
    <path
       style="fill:#000080;stroke-width:1"
       d="m 134.51081,176.7069 c 18.33607,-8.30092 19.36073,-8.30092 19.36073,-8.30092 l -19.37207,-8.25419 z"
       id="path3715-3-2-61-0"
       inkscape:connector-curvature="0"
       sodipodi:nodetypes="cccc" />
    <path
       style="fill:#ff0000;stroke-width:1"
       d="m 172.70309,160.10505 c -18.33606,8.30093 -19.36072,8.30093 -19.36072,8.30093 l 19.37206,8.25418 z"
       id="path3715-6-9-8-3"
       inkscape:connector-curvature="0"
       sodipodi:nodetypes="cccc" />
    <path
       style="fill:#ff0000;stroke-width:1"
       d="m 153.34237,168.40598 c -18.33606,8.30092 -19.36073,8.30092 -19.36073,8.30092 l 19.37207,8.25418 z"
       id="path3715-6-56-7-6"
       inkscape:connector-curvature="0"
       sodipodi:nodetypes="cccc" />
    <path
       style="fill:#ff6600;stroke-width:1"
       d="m 153.35371,184.96108 c 18.33606,-8.30092 19.36072,-8.30092 19.36072,-8.30092 l -19.37206,-8.25418 z"
       id="path3715-3-2-61-9-1"
       inkscape:connector-curvature="0"
       sodipodi:nodetypes="cccc" />
    <path
       style="fill:#ff0000;stroke-width:1"
       d="m 134.4768,128.6291 c -18.33607,8.30092 -19.36073,8.30092 -19.36073,8.30092 l 19.37207,8.25418 z"
       id="path3715-6-8-6"
       inkscape:connector-curvature="0"
       sodipodi:nodetypes="cccc" />
    <path
       style="fill:#ff6600;stroke-width:1"
       d="m 115.12741,153.48512 c 18.33606,-8.30093 19.36073,-8.30093 19.36073,-8.30093 l -19.37207,-8.25417 z"
       id="path3715-3-7-9-3"
       inkscape:connector-curvature="0"
       sodipodi:nodetypes="cccc" />
    <path
       style="fill:#ff0000;stroke-width:1"
       d="m 134.48814,144.65502 c -18.33607,8.30094 -19.36073,8.30094 -19.36073,8.30094 l 19.37206,8.25418 z"
       id="path3715-6-5-7-2"
       inkscape:connector-curvature="0"
       sodipodi:nodetypes="cccc" />
    <path
       style="fill:#ff6600;stroke-width:1"
       d="m 115.13875,169.51106 c 18.33606,-8.30092 19.36072,-8.30092 19.36072,-8.30092 l -19.37206,-8.25418 z"
       id="path3715-3-3-3-0"
       inkscape:connector-curvature="0"
       sodipodi:nodetypes="cccc" />
    <path
       style="fill:#ff0000;stroke-width:1"
       d="m 134.49947,160.68097 c -18.33606,8.30093 -19.36072,8.30093 -19.36072,8.30093 l 19.37206,8.25418 z"
       id="path3715-6-56-6-6"
       inkscape:connector-curvature="0"
       sodipodi:nodetypes="cccc" />
    <path
       style="fill:#ff0000;stroke-width:1"
       d="m 192.07515,168.35922 c -18.33606,8.30093 -19.36072,8.30093 -19.36072,8.30093 l 19.37206,8.25418 z"
       id="path3715-6-56-7-3-5"
       inkscape:connector-curvature="0"
       sodipodi:nodetypes="cccc" />
    <path
       style="fill:#000080;stroke-width:1"
       d="m 192.08649,184.91433 c 18.33606,-8.30093 19.36072,-8.30093 19.36072,-8.30093 l -19.37206,-8.25418 z"
       id="path3715-3-2-61-9-7-5"
       inkscape:connector-curvature="0"
       sodipodi:nodetypes="cccc" />
  </g>
</svg>
